<svg xmlns="http://www.w3.org/2000/svg" xmlns:xlink="http://www.w3.org/1999/xlink" width="250" zoomAndPan="magnify" viewBox="0 0 187.5 187.499992" height="250" preserveAspectRatio="xMidYMid meet" version="1.0"><defs><clipPath id="f9372cace0"><path d="M 88 1.148438 L 158.015625 1.148438 L 158.015625 67 L 88 67 Z M 88 1.148438 " clip-rule="nonzero"/></clipPath><clipPath id="71966b8f79"><path d="M 29.359375 63 L 152 63 L 152 185.90625 L 29.359375 185.90625 Z M 29.359375 63 " clip-rule="nonzero"/></clipPath><clipPath id="8039425c75"><path d="M 40 80 L 152 80 L 152 185.90625 L 40 185.90625 Z M 40 80 " clip-rule="nonzero"/></clipPath></defs><g clip-path="url(#f9372cace0)"><path fill="#f8b051" d="M 135.292969 36.667969 L 158.007812 22.472656 L 136.851562 22.613281 L 140.292969 10.695312 L 128.441406 20.535156 L 120.320312 4.125 L 115.617188 13.625 L 101.453125 1.179688 L 106.890625 20.886719 L 92.5625 24.242188 L 105.300781 34.59375 L 88.039062 44.21875 L 104.179688 43.195312 L 103.164062 56.789062 L 114.394531 50.898438 L 115.082031 65.515625 L 120.796875 48.042969 L 141.199219 66.648438 L 135.339844 44.382812 L 140.203125 44.976562 Z M 135.292969 36.667969 " fill-opacity="1" fill-rule="nonzero"/></g><path fill="#e83c37" d="M 127.566406 33.460938 L 136.566406 29.042969 L 130.355469 27.25 L 131.722656 22.851562 L 124.246094 25.65625 L 120.320312 17.714844 L 118.042969 22.3125 L 113.554688 18.621094 L 116.324219 25.789062 L 116.167969 26.105469 L 106.890625 27.449219 L 110.855469 31.308594 L 107.496094 36.894531 L 113.339844 34.605469 L 113.605469 33.976562 L 111.886719 43.195312 L 117.453125 40.347656 L 118.398438 43.195312 L 120.550781 38.964844 L 127.785156 43.992188 L 127.585938 37.195312 L 134.449219 40.824219 Z M 127.566406 33.460938 " fill-opacity="1" fill-rule="nonzero"/><path fill="#bad5f1" d="M 118.632812 33.109375 C 118.519531 41.746094 112.417969 44.71875 104.527344 45.195312 C 100.855469 45.417969 98.164062 45.382812 95.207031 47.777344 C 92.757812 49.761719 91.816406 54.027344 90.941406 56.855469 C 89.878906 60.28125 95.246094 61.734375 96.300781 58.328125 C 96.851562 56.554688 97.386719 54.820312 98.191406 53.136719 C 99.601562 50.195312 103.101562 50.828125 105.816406 50.660156 C 109.292969 50.453125 112.621094 49.617188 115.785156 48.191406 C 121.773438 45.492188 124.113281 39.253906 124.191406 33.105469 C 124.238281 29.53125 118.679688 29.535156 118.632812 33.109375 Z M 118.632812 33.109375 " fill-opacity="1" fill-rule="nonzero"/><path fill="#131328" d="M 107.496094 66.648438 C 107.496094 73.820312 101.667969 79.632812 94.476562 79.632812 L 92.054688 79.632812 C 84.863281 79.632812 79.03125 73.820312 79.03125 66.648438 C 79.03125 59.472656 84.863281 53.660156 92.054688 53.660156 L 94.476562 53.660156 C 101.667969 53.660156 107.496094 59.472656 107.496094 66.648438 Z M 107.496094 66.648438 " fill-opacity="1" fill-rule="nonzero"/><g clip-path="url(#71966b8f79)"><path fill="#181930" d="M 151.707031 124.9375 C 151.707031 126.9375 151.609375 128.929688 151.414062 130.917969 C 151.21875 132.90625 150.921875 134.882812 150.53125 136.839844 C 150.140625 138.800781 149.65625 140.738281 149.074219 142.648438 C 148.492188 144.5625 147.820312 146.441406 147.050781 148.285156 C 146.285156 150.132812 145.429688 151.9375 144.484375 153.699219 C 143.539062 155.460938 142.511719 157.171875 141.398438 158.835938 C 140.285156 160.496094 139.09375 162.097656 137.824219 163.644531 C 136.550781 165.1875 135.207031 166.667969 133.792969 168.082031 C 132.375 169.492188 130.894531 170.832031 129.34375 172.101562 C 127.796875 173.367188 126.1875 174.558594 124.523438 175.667969 C 122.855469 176.777344 121.140625 177.804688 119.375 178.746094 C 117.605469 179.6875 115.796875 180.542969 113.945312 181.304688 C 112.097656 182.070312 110.210938 182.742188 108.296875 183.324219 C 106.378906 183.902344 104.4375 184.386719 102.472656 184.777344 C 100.507812 185.167969 98.527344 185.460938 96.535156 185.65625 C 94.539062 185.851562 92.542969 185.949219 90.539062 185.949219 C 88.535156 185.949219 86.535156 185.851562 84.542969 185.65625 C 82.550781 185.460938 80.570312 185.167969 78.605469 184.777344 C 76.640625 184.386719 74.699219 183.902344 72.78125 183.324219 C 70.863281 182.742188 68.980469 182.070312 67.128906 181.304688 C 65.277344 180.542969 63.46875 179.6875 61.703125 178.746094 C 59.9375 177.804688 58.21875 176.777344 56.554688 175.667969 C 54.890625 174.558594 53.28125 173.367188 51.734375 172.101562 C 50.183594 170.832031 48.703125 169.492188 47.285156 168.082031 C 45.867188 166.667969 44.523438 165.1875 43.253906 163.644531 C 41.984375 162.097656 40.792969 160.496094 39.679688 158.835938 C 38.566406 157.171875 37.535156 155.460938 36.59375 153.699219 C 35.648438 151.9375 34.792969 150.132812 34.023438 148.285156 C 33.257812 146.441406 32.585938 144.5625 32.003906 142.648438 C 31.421875 140.738281 30.933594 138.800781 30.542969 136.839844 C 30.152344 134.882812 29.859375 132.90625 29.664062 130.917969 C 29.46875 128.929688 29.367188 126.9375 29.367188 124.9375 C 29.367188 122.941406 29.46875 120.949219 29.664062 118.960938 C 29.859375 116.96875 30.152344 114.996094 30.542969 113.035156 C 30.933594 111.078125 31.421875 109.140625 32.003906 107.230469 C 32.585938 105.316406 33.257812 103.4375 34.023438 101.589844 C 34.792969 99.746094 35.648438 97.941406 36.59375 96.179688 C 37.535156 94.417969 38.566406 92.703125 39.679688 91.042969 C 40.792969 89.382812 41.984375 87.777344 43.253906 86.234375 C 44.523438 84.691406 45.867188 83.210938 47.285156 81.796875 C 48.703125 80.386719 50.183594 79.042969 51.734375 77.777344 C 53.28125 76.507812 54.890625 75.320312 56.554688 74.210938 C 58.21875 73.101562 59.9375 72.074219 61.703125 71.132812 C 63.46875 70.191406 65.277344 69.335938 67.128906 68.574219 C 68.980469 67.808594 70.863281 67.136719 72.78125 66.554688 C 74.699219 65.976562 76.640625 65.492188 78.605469 65.101562 C 80.570312 64.710938 82.550781 64.417969 84.542969 64.222656 C 86.535156 64.027344 88.535156 63.929688 90.539062 63.929688 C 92.542969 63.929688 94.539062 64.027344 96.535156 64.222656 C 98.527344 64.417969 100.507812 64.710938 102.472656 65.101562 C 104.4375 65.492188 106.378906 65.976562 108.296875 66.554688 C 110.210938 67.136719 112.097656 67.808594 113.945312 68.574219 C 115.796875 69.335938 117.605469 70.191406 119.375 71.132812 C 121.140625 72.074219 122.855469 73.101562 124.523438 74.210938 C 126.1875 75.320312 127.796875 76.507812 129.34375 77.777344 C 130.894531 79.042969 132.375 80.386719 133.792969 81.796875 C 135.207031 83.210938 136.550781 84.691406 137.824219 86.234375 C 139.09375 87.777344 140.285156 89.382812 141.398438 91.042969 C 142.511719 92.703125 143.539062 94.417969 144.484375 96.179688 C 145.429688 97.941406 146.285156 99.746094 147.050781 101.589844 C 147.820312 103.4375 148.492188 105.316406 149.074219 107.230469 C 149.65625 109.140625 150.140625 111.078125 150.53125 113.035156 C 150.921875 114.996094 151.21875 116.96875 151.414062 118.960938 C 151.609375 120.949219 151.707031 122.941406 151.707031 124.9375 Z M 151.707031 124.9375 " fill-opacity="1" fill-rule="nonzero"/></g><path fill="#ffffff" d="M 70.550781 95.339844 C 70.550781 96.132812 70.472656 96.917969 70.320312 97.695312 C 70.164062 98.476562 69.933594 99.230469 69.628906 99.960938 C 69.324219 100.695312 68.953125 101.390625 68.511719 102.050781 C 68.070312 102.710938 67.566406 103.320312 67.003906 103.882812 C 66.441406 104.441406 65.832031 104.941406 65.171875 105.382812 C 64.507812 105.824219 63.8125 106.195312 63.078125 106.5 C 62.339844 106.804688 61.585938 107.03125 60.804688 107.1875 C 60.023438 107.34375 59.238281 107.417969 58.441406 107.417969 C 57.648438 107.417969 56.859375 107.34375 56.078125 107.1875 C 55.300781 107.03125 54.542969 106.804688 53.808594 106.5 C 53.074219 106.195312 52.375 105.824219 51.714844 105.382812 C 51.050781 104.941406 50.441406 104.441406 49.878906 103.882812 C 49.316406 103.320312 48.8125 102.710938 48.371094 102.050781 C 47.929688 101.390625 47.558594 100.695312 47.253906 99.960938 C 46.949219 99.230469 46.71875 98.476562 46.5625 97.695312 C 46.410156 96.917969 46.332031 96.132812 46.332031 95.339844 C 46.332031 94.546875 46.410156 93.761719 46.5625 92.984375 C 46.71875 92.207031 46.949219 91.449219 47.253906 90.71875 C 47.558594 89.984375 47.929688 89.289062 48.371094 88.628906 C 48.8125 87.96875 49.316406 87.359375 49.878906 86.800781 C 50.441406 86.238281 51.050781 85.738281 51.714844 85.296875 C 52.375 84.855469 53.074219 84.484375 53.808594 84.179688 C 54.542969 83.878906 55.300781 83.648438 56.078125 83.492188 C 56.859375 83.339844 57.648438 83.261719 58.441406 83.261719 C 59.238281 83.261719 60.023438 83.339844 60.804688 83.492188 C 61.585938 83.648438 62.339844 83.878906 63.078125 84.179688 C 63.8125 84.484375 64.507812 84.855469 65.171875 85.296875 C 65.832031 85.738281 66.441406 86.238281 67.003906 86.800781 C 67.566406 87.359375 68.070312 87.96875 68.511719 88.628906 C 68.953125 89.289062 69.324219 89.984375 69.628906 90.71875 C 69.933594 91.449219 70.164062 92.207031 70.320312 92.984375 C 70.472656 93.761719 70.550781 94.546875 70.550781 95.339844 Z M 70.550781 95.339844 " fill-opacity="0.3" fill-rule="nonzero"/><path fill="#ffffff" d="M 55.414062 115.878906 C 55.414062 116.277344 55.375 116.667969 55.296875 117.058594 C 55.222656 117.449219 55.105469 117.824219 54.953125 118.191406 C 54.800781 118.558594 54.617188 118.90625 54.394531 119.234375 C 54.171875 119.566406 53.921875 119.871094 53.640625 120.152344 C 53.359375 120.429688 53.054688 120.683594 52.722656 120.902344 C 52.394531 121.121094 52.042969 121.308594 51.675781 121.460938 C 51.308594 121.613281 50.929688 121.726562 50.539062 121.804688 C 50.152344 121.882812 49.757812 121.921875 49.359375 121.921875 C 48.960938 121.921875 48.566406 121.882812 48.179688 121.804688 C 47.789062 121.726562 47.410156 121.613281 47.042969 121.460938 C 46.675781 121.308594 46.324219 121.121094 45.996094 120.902344 C 45.664062 120.683594 45.359375 120.429688 45.078125 120.152344 C 44.796875 119.871094 44.546875 119.566406 44.324219 119.234375 C 44.101562 118.90625 43.917969 118.558594 43.765625 118.191406 C 43.613281 117.824219 43.496094 117.449219 43.417969 117.058594 C 43.34375 116.667969 43.304688 116.277344 43.304688 115.878906 C 43.304688 115.484375 43.34375 115.089844 43.417969 114.703125 C 43.496094 114.3125 43.613281 113.933594 43.765625 113.570312 C 43.917969 113.203125 44.101562 112.855469 44.324219 112.523438 C 44.546875 112.195312 44.796875 111.890625 45.078125 111.609375 C 45.359375 111.328125 45.664062 111.078125 45.996094 110.859375 C 46.324219 110.636719 46.675781 110.453125 47.042969 110.300781 C 47.410156 110.148438 47.789062 110.035156 48.179688 109.957031 C 48.566406 109.878906 48.960938 109.839844 49.359375 109.839844 C 49.757812 109.839844 50.152344 109.878906 50.539062 109.957031 C 50.929688 110.035156 51.308594 110.148438 51.675781 110.300781 C 52.042969 110.453125 52.394531 110.636719 52.722656 110.859375 C 53.054688 111.078125 53.359375 111.328125 53.640625 111.609375 C 53.921875 111.890625 54.171875 112.195312 54.394531 112.523438 C 54.617188 112.855469 54.800781 113.203125 54.953125 113.570312 C 55.105469 113.933594 55.222656 114.3125 55.296875 114.703125 C 55.375 115.089844 55.414062 115.484375 55.414062 115.878906 Z M 55.414062 115.878906 " fill-opacity="0.3" fill-rule="nonzero"/><g clip-path="url(#8039425c75)"><path fill="#131328" d="M 132.261719 80.328125 C 129.949219 100.546875 120.804688 119.65625 106.285156 134.136719 C 89.359375 151.019531 66.121094 160.625 42.167969 160.625 C 41.75 160.625 41.332031 160.617188 40.914062 160.609375 C 52.023438 175.960938 70.109375 185.949219 90.539062 185.949219 C 124.320312 185.949219 151.707031 158.636719 151.707031 124.941406 C 151.707031 107.328125 144.222656 91.464844 132.261719 80.328125 Z M 132.261719 80.328125 " fill-opacity="1" fill-rule="nonzero"/></g></svg>